<?xml version="1.0" standalone="no"?>
<!DOCTYPE svg PUBLIC "-//W3C//DTD SVG 20010904//EN"
 "http://www.w3.org/TR/2001/REC-SVG-20010904/DTD/svg10.dtd">
<svg version="1.0" xmlns="http://www.w3.org/2000/svg"
 width="900.000000pt" height="900.000000pt" viewBox="0 0 900.000000 900.000000"
 preserveAspectRatio="xMidYMid meet">

<g transform="translate(0.000000,900.000000) scale(0.100000,-0.100000)"
fill="#000000" stroke="none">
<path d="M4335 7043 c-419 -34 -792 -149 -1131 -350 -912 -541 -1395 -1585
-1214 -2627 192 -1106 1117 -1974 2232 -2095 125 -14 431 -14 556 0 292 31
626 130 867 257 82 43 90 50 93 79 3 29 -7 40 -133 153 -185 164 -207 173
-337 121 -693 -274 -1472 -160 -2051 302 -407 324 -677 784 -762 1297 -22 134
-30 382 -16 515 52 486 242 897 575 1243 335 348 787 569 1268 621 62 7 490
11 1193 11 l1095 0 0 -1835 c0 -1009 -2 -1835 -5 -1835 -3 0 -268 234 -589
519 -322 286 -594 525 -606 531 -35 19 -76 2 -117 -48 -139 -171 -305 -277
-533 -339 -92 -25 -348 -25 -440 0 -208 57 -340 136 -487 290 -118 125 -203
290 -238 466 -26 124 -17 324 19 446 114 386 441 658 834 694 379 35 735 -149
927 -479 56 -97 99 -221 119 -345 9 -60 23 -110 34 -125 10 -14 93 -91 183
-172 175 -158 203 -173 233 -125 40 60 46 390 11 566 -25 126 -70 253 -136
382 -199 386 -562 660 -999 755 -119 26 -427 26 -553 1 -187 -38 -372 -115
-535 -224 -107 -71 -265 -222 -347 -332 -121 -160 -221 -387 -262 -588 -25
-125 -25 -415 0 -533 64 -298 193 -537 406 -751 216 -215 460 -346 757 -406
135 -26 395 -24 534 6 188 40 350 104 490 196 40 25 78 44 84 41 6 -2 356
-310 778 -684 421 -374 776 -683 787 -687 35 -11 79 4 106 37 l25 30 0 2473
c0 1897 -3 2480 -12 2500 -26 58 46 55 -1365 53 -714 -1 -1316 -3 -1338 -5z"/>
</g>
</svg>
